<svg xmlns="http://www.w3.org/2000/svg" width="151.681" height="35.06" viewBox="0 0 151.681 35.06"><defs><style>.a{fill:#6b40ff;}.b{fill:#00e4e3;}</style></defs><g transform="translate(-3740.505 -503.972)"><g transform="translate(3740.505 510.919)"><path class="a" d="M3756.961,578.858a16.459,16.459,0,0,1-13.994-25.119,1.789,1.789,0,1,1,3.04,1.886,12.88,12.88,0,0,0,19.417,16.486,1.789,1.789,0,1,1,2.352,2.7A16.448,16.448,0,0,1,3756.961,578.858Z" transform="translate(-3740.505 -552.892)"/></g><g transform="translate(3749.463 503.972)"><path class="b" d="M3825.57,524.554a1.791,1.791,0,0,1-1.769-2.072,13.023,13.023,0,0,0,.163-2.054,12.887,12.887,0,0,0-17.892-11.868,1.789,1.789,0,0,1-1.394-3.295,16.465,16.465,0,0,1,22.863,15.162,16.631,16.631,0,0,1-.208,2.62A1.79,1.79,0,0,1,3825.57,524.554Z" transform="translate(-3803.587 -503.972)"/></g><g transform="translate(3765.138 529.518)"><path class="a" d="M3922.608,693.381a1.783,1.783,0,0,1-1.171-.437l-6.849-5.936a1.789,1.789,0,0,1,2.343-2.7l6.849,5.936a1.789,1.789,0,0,1-1.172,3.141Z" transform="translate(-3913.971 -683.867)"/></g><g transform="translate(3748.195 511.763)"><g transform="translate(0.268 0.269)"><path class="b" d="M3813.669,569.306a8.623,8.623,0,0,1-.665,3.326,8.824,8.824,0,0,1-4.559,4.559,8.709,8.709,0,0,1-6.678,0,8.822,8.822,0,0,1-4.559-4.559,8.714,8.714,0,0,1,0-6.678,8.823,8.823,0,0,1,4.559-4.558,8.5,8.5,0,0,1,3.3-.665,8.345,8.345,0,0,1,7.121,3.548,1.189,1.189,0,0,1-.443,1.7,1.368,1.368,0,0,1-1.725-.444,6.188,6.188,0,1,0,1.059,5h-5.347a1.236,1.236,0,0,1-1.232-1.232,1.22,1.22,0,0,1,1.232-1.232h6.7A1.235,1.235,0,0,1,3813.669,569.306Z" transform="translate(-3796.544 -560.727)"/></g><g transform="translate(0 0)"><path class="b" d="M3803.474,576.5a8.838,8.838,0,0,1-3.43-.686,9.092,9.092,0,0,1-4.7-4.7,8.982,8.982,0,0,1,0-6.889,9.093,9.093,0,0,1,4.7-4.7,8.79,8.79,0,0,1,3.41-.688,8.6,8.6,0,0,1,7.336,3.655,1.314,1.314,0,0,1,.228,1.059,1.592,1.592,0,0,1-.75,1.034,1.627,1.627,0,0,1-2.063-.5,5.916,5.916,0,1,0,.924,5.1h-5.008a1.5,1.5,0,0,1-1.5-1.5,1.485,1.485,0,0,1,1.5-1.5h6.7a1.5,1.5,0,0,1,1.5,1.5,8.838,8.838,0,0,1-.686,3.43,9.091,9.091,0,0,1-4.7,4.7A8.907,8.907,0,0,1,3803.474,576.5Zm.224-17.129c-.081,0-.161,0-.242,0a8.261,8.261,0,0,0-3.206.644,8.557,8.557,0,0,0-4.417,4.419,8.443,8.443,0,0,0,0,6.466,8.553,8.553,0,0,0,4.419,4.417,8.444,8.444,0,0,0,6.466,0,8.552,8.552,0,0,0,4.417-4.419,8.3,8.3,0,0,0,.643-3.218.965.965,0,0,0-.964-.964h-6.7a.954.954,0,0,0-.964.964.965.965,0,0,0,.964.964h5.676l-.066.322a6.23,6.23,0,1,1-1.118-5.23,1.114,1.114,0,0,0,1.389.384,1.045,1.045,0,0,0,.491-.676.773.773,0,0,0-.132-.63A8.094,8.094,0,0,0,3803.7,559.372Z" transform="translate(-3794.655 -558.835)"/></g></g><path class="a" d="M4065.316,564.4l3.429,4.12h-4.609l-2-2.695a8.824,8.824,0,0,1-1.737.178,7.824,7.824,0,1,1,4.921-1.6Zm-4.921-1.87c2.494,0,4.119-1.8,4.119-4.543,0-2.784-1.625-4.543-4.119-4.543-2.539,0-4.142,1.759-4.142,4.543C4056.253,560.723,4057.856,562.527,4060.4,562.527Z" transform="translate(-267.567 -39.483)"/><path class="a" d="M4181.141,551.558v12.693h4.989v2.94h-8.8V551.558Z" transform="translate(-374.796 -40.829)"/><path class="a" d="M4243.036,551.558h12.092v3.051h-4.143V567.19h-3.807V554.609h-4.142Z" transform="translate(-431.169 -40.829)"/><path class="a" d="M4341.5,566c-3.362,0-5.99-1.67-6.1-4.832h4.053a1.793,1.793,0,0,0,1.938,1.782c1.113,0,1.826-.557,1.826-1.47,0-2.895-7.816-1.336-7.771-6.881,0-2.962,2.427-4.61,5.7-4.61,3.407,0,5.7,1.692,5.856,4.676h-4.119a1.693,1.693,0,0,0-1.8-1.626,1.386,1.386,0,0,0-1.6,1.425c0,2.717,7.728,1.492,7.728,6.725C4347.2,563.818,4345.149,566,4341.5,566Z" transform="translate(-510.413 -39.483)"/><path class="b" d="M4443.794,555.763h-2.427a4.952,4.952,0,0,0-4.721-2.85c-3.273,0-5.724,2.361-5.724,6.1,0,3.719,2.45,6.079,5.724,6.079a5.233,5.233,0,0,0,5.455-5.033h-6.19v-1.648h8.351v1.559a7.528,7.528,0,0,1-7.615,6.948,7.917,7.917,0,0,1,0-15.833A7.339,7.339,0,0,1,4443.794,555.763Z" transform="translate(-590.599 -40.424)"/><path class="b" d="M4553.75,586.9c-3.474,0-6.035-2.449-6.035-6.324,0-3.852,2.472-6.28,6.035-6.28a5.593,5.593,0,0,1,5.856,5.834,11.125,11.125,0,0,1-.066,1.225h-9.753a3.836,3.836,0,0,0,3.963,3.83,3.354,3.354,0,0,0,3.43-2.249h2.182A5.487,5.487,0,0,1,4553.75,586.9Zm-3.941-7.193h7.7a3.581,3.581,0,0,0-3.853-3.7A3.779,3.779,0,0,0,4549.808,579.706Z" transform="translate(-692.582 -60.337)"/><path class="b" d="M4647.835,586.9c-3.474,0-6.035-2.449-6.035-6.324,0-3.852,2.472-6.28,6.035-6.28a5.593,5.593,0,0,1,5.856,5.834,11.006,11.006,0,0,1-.066,1.225h-9.753a3.836,3.836,0,0,0,3.963,3.83,3.354,3.354,0,0,0,3.43-2.249h2.182A5.487,5.487,0,0,1,4647.835,586.9Zm-3.941-7.193h7.7a3.581,3.581,0,0,0-3.853-3.7A3.779,3.779,0,0,0,4643.895,579.706Z" transform="translate(-773.308 -60.337)"/><path class="b" d="M4741.218,545.6h2.026v9.687l4.7-5.411h2.828l-5.745,6.079,5.767,6.124h-2.761l-4.788-5.389v5.389h-2.026Z" transform="translate(-858.607 -35.716)"/></g></svg>