<svg xmlns="http://www.w3.org/2000/svg" width="15.215" height="17.317" viewBox="0 0 15.215 17.317"><defs><style>.a{fill:#7b4fff;stroke:#7b4fff;stroke-width:0.5px;}</style></defs><g transform="translate(-0.75 0.25)"><path class="a" d="M15.189,16.817H2.927A1.929,1.929,0,0,1,1,14.89V1.927A1.929,1.929,0,0,1,2.927,0H13.788a.526.526,0,0,1,.526.526V2.8h.876a.526.526,0,0,1,.526.526V16.291A.526.526,0,0,1,15.189,16.817ZM2.051,3.643V14.89a.877.877,0,0,0,.876.876H14.664V3.854H2.927a1.908,1.908,0,0,1-.876-.211Zm.876-2.592a.876.876,0,0,0,0,1.752H13.262V1.051Z"/><path class="a" d="M10.08,14.735a.53.53,0,0,1-.276-.078l-2-1.232-2,1.232a.526.526,0,0,1-.8-.448V4.75H6.051v8.519l1.476-.908a.528.528,0,0,1,.551,0l1.476.908V4.75h1.052v9.459a.525.525,0,0,1-.526.526Z" transform="translate(-1.197 -1.422)"/></g></svg>