<svg xmlns="http://www.w3.org/2000/svg" width="30.654" height="38.887" viewBox="0 0 30.654 38.887"><defs><style>.a{fill:#7b4fff;}.b{fill:#05cfce;}.c{fill:#00e4e3;}</style></defs><g transform="translate(-413.667 -522.113)"><path class="a" d="M25.606,36.217H5.048A5.054,5.054,0,0,1,0,31.169V5.048A5.054,5.054,0,0,1,5.048,0H25.606a5.054,5.054,0,0,1,5.048,5.048v26.12A5.054,5.054,0,0,1,25.606,36.217ZM8.8,24.723a1.318,1.318,0,0,0,0,2.636h4.876a1.318,1.318,0,0,0,0-2.636Zm0-7.081a1.318,1.318,0,0,0,0,2.636H21.857a1.318,1.318,0,1,0,0-2.636Zm0-7.081a1.318,1.318,0,0,0,0,2.636H21.857a1.318,1.318,0,1,0,0-2.636Z" transform="translate(413.667 524.783)"/><path class="b" d="M4.267,2.636H1.318A1.318,1.318,0,0,1,1.318,0H4.267a1.318,1.318,0,1,1,0,2.636" transform="translate(426.201 522.113)"/><path class="c" d="M3.092,6.955A3.1,3.1,0,0,1,0,3.863V1.318A1.318,1.318,0,0,1,1.318,0H11.781A1.318,1.318,0,0,1,13.1,1.318V3.863a3.1,3.1,0,0,1-3.092,3.092Z" transform="translate(422.444 523.465)"/></g></svg>