<svg xmlns="http://www.w3.org/2000/svg" width="26.772" height="29.207" viewBox="0 0 26.772 29.207"><defs><style>.a{fill:#00e4e3;}.b{fill:#7b4fff;}</style></defs><g transform="translate(-13.164 -12.151)"><path class="a" d="M12.318,16.215A5.788,5.788,0,0,1,18.1,10.433H29.214A3.344,3.344,0,0,0,26.009,8h-14a3.349,3.349,0,0,0-3.346,3.346V30.208a3.35,3.35,0,0,0,3.346,3.348h.3Z" transform="translate(4.497 4.151)"/><path class="b" d="M29.342,10.667h-14A3.349,3.349,0,0,0,12,14.013V31.66a3.349,3.349,0,0,0,3.346,3.346h14a3.349,3.349,0,0,0,3.346-3.346V14.013A3.349,3.349,0,0,0,29.342,10.667ZM26.908,31.355H17.781a.913.913,0,1,1,0-1.825h9.127a.913.913,0,1,1,0,1.825Zm0-4.868H17.781a.913.913,0,1,1,0-1.825h9.127a.913.913,0,1,1,0,1.825Zm0-4.259H17.781a.913.913,0,0,1,0-1.825h9.127a.913.913,0,0,1,0,1.825Zm0-4.868H17.781a.913.913,0,0,1,0-1.825h9.127a.913.913,0,1,1,0,1.825Z" transform="translate(7.249 6.353)"/></g></svg>