<svg xmlns="http://www.w3.org/2000/svg" width="15" height="15" viewBox="0 0 15 15"><defs><style>.a{fill:none;stroke:#858fb0;stroke-width:1.5px;}</style></defs><g transform="translate(-42.75 -180.75)"><g transform="translate(42 180)"><path class="a" d="M9.917,15a.085.085,0,0,1-.084-.084V9.084a.086.086,0,0,1,.024-.059A.084.084,0,0,1,9.917,9h5A.085.085,0,0,1,15,9.084v5.833a.086.086,0,0,1-.084.084ZM1.583,15a.081.081,0,0,1-.059-.025.079.079,0,0,1-.024-.059V11.583a.08.08,0,0,1,.024-.059.084.084,0,0,1,.059-.024h5a.084.084,0,0,1,.058.024.08.08,0,0,1,.024.059v3.334a.079.079,0,0,1-.024.059A.081.081,0,0,1,6.584,15Zm0-6.667a.084.084,0,0,1-.059-.024A.08.08,0,0,1,1.5,8.25V1.583A.083.083,0,0,1,1.583,1.5h5a.083.083,0,0,1,.083.083V8.25a.08.08,0,0,1-.024.058.084.084,0,0,1-.058.024Zm8.334-2.5a.081.081,0,0,1-.059-.024.084.084,0,0,1-.024-.058V1.583a.084.084,0,0,1,.024-.059A.081.081,0,0,1,9.917,1.5h5a.079.079,0,0,1,.059.024A.081.081,0,0,1,15,1.583V5.75a.081.081,0,0,1-.025.058.079.079,0,0,1-.059.024Z"/></g></g></svg>