<svg xmlns="http://www.w3.org/2000/svg" width="16" height="17.172" viewBox="0 0 16 17.172"><defs><style>.a{fill:#858fb0;fill-rule:evenodd;}</style></defs><path class="a" d="M19,7,12.8,1.595a2.953,2.953,0,0,0-3.771,0L3,6.844V18.086H9.222V13.439A1.675,1.675,0,0,1,11,11.89a1.675,1.675,0,0,1,1.778,1.549v4.647H19ZM10.282,2.69l-5.5,4.8v9.051H7.444v-3.1A3.351,3.351,0,0,1,11,10.341a3.351,3.351,0,0,1,3.556,3.1v3.1h2.667v-8.9L11.539,2.69A.984.984,0,0,0,10.282,2.69Z" transform="translate(-3 -0.914)"/></svg>