<svg xmlns="http://www.w3.org/2000/svg" xmlns:xlink="http://www.w3.org/1999/xlink" width="8" height="14" viewBox="0 0 8 14"><defs><style>.a{fill:#858fb0;}.b{clip-path:url(#a);}</style><clipPath id="a"><path class="a" d="M7.7,12.3a.967.967,0,0,1,0,1.4.967.967,0,0,1-1.4,0l-6-6a.967.967,0,0,1,0-1.4l6-6A.967.967,0,0,1,7.7.3a.967.967,0,0,1,0,1.4L2.4,7Z"/></clipPath></defs><path class="a" d="M7.7,12.3a.967.967,0,0,1,0,1.4.967.967,0,0,1-1.4,0l-6-6a.967.967,0,0,1,0-1.4l6-6A.967.967,0,0,1,7.7.3a.967.967,0,0,1,0,1.4L2.4,7Z"/></svg>