<svg xmlns="http://www.w3.org/2000/svg" width="15.333" height="18.667" viewBox="0 0 15.333 18.667"><defs><style>.a{fill:none;stroke:#858fb0;stroke-linecap:round;stroke-width:2px;}</style></defs><g transform="translate(-0.833 -0.167)"><path class="a" d="M11.833,2.833H13.5A1.667,1.667,0,0,1,15.167,4.5V16.167A1.667,1.667,0,0,1,13.5,17.833H3.5a1.667,1.667,0,0,1-1.667-1.667V4.5A1.667,1.667,0,0,1,3.5,2.833H5.167"/><path class="a" d="M11,1.167H6A.833.833,0,0,0,5.167,2V3.667A.833.833,0,0,0,6,4.5h5a.833.833,0,0,0,.833-.833V2A.833.833,0,0,0,11,1.167Z"/></g></svg>