<svg xmlns="http://www.w3.org/2000/svg" width="18.477" height="18.477" viewBox="0 0 18.477 18.477"><defs><style>.a{fill:#858fb0;stroke:#858fb0;stroke-width:0.2px;}</style></defs><g transform="translate(0.1 0.1)"><path class="a" d="M15.611,18.277H2.856A2.859,2.859,0,0,1,0,15.421V2.094A2.1,2.1,0,0,1,2.094,0h9.519a2.1,2.1,0,0,1,2.094,2.094v.19h2.475a2.1,2.1,0,0,1,2.094,2.094V15.421a2.86,2.86,0,0,1-2.514,2.835A.552.552,0,0,1,15.611,18.277Zm-1.9-14.85V15.421a1.713,1.713,0,0,0,3.427,0V4.379a.953.953,0,0,0-.952-.952ZM2.094,1.142a.953.953,0,0,0-.952.952V15.421a1.715,1.715,0,0,0,1.713,1.713H13.138a2.841,2.841,0,0,1-.573-1.713V2.094a.953.953,0,0,0-.952-.952Z"/><path class="a" d="M7,7.569H3.571A.571.571,0,0,1,3,7V3.571A.571.571,0,0,1,3.571,3H7a.571.571,0,0,1,.571.571V7A.571.571,0,0,1,7,7.569ZM4.142,6.427H6.427V4.142H4.142Z" transform="translate(-0.715 -0.715)"/><path class="a" d="M13.475,5.142h-1.9a.571.571,0,1,1,0-1.142h1.9a.571.571,0,1,1,0,1.142Z" transform="translate(-2.623 -0.954)"/><path class="a" d="M13.475,8.142h-1.9a.571.571,0,0,1,0-1.142h1.9a.571.571,0,1,1,0,1.142Z" transform="translate(-2.623 -1.669)"/><path class="a" d="M11.567,12.142h-8a.571.571,0,0,1,0-1.142h8a.571.571,0,0,1,0,1.142Z" transform="translate(-0.715 -2.623)"/><path class="a" d="M11.567,15.892h-8a.571.571,0,0,1,0-1.142h8a.571.571,0,1,1,0,1.142Z" transform="translate(-0.715 -3.517)"/><path class="a" d="M11.567,19.642h-8a.571.571,0,0,1,0-1.142h8a.571.571,0,1,1,0,1.142Z" transform="translate(-0.715 -4.412)"/></g></svg>