<svg xmlns="http://www.w3.org/2000/svg" xmlns:xlink="http://www.w3.org/1999/xlink" width="22" height="24" viewBox="0 0 22 24"><defs><style>.a{fill:#858fb0;}.b{clip-path:url(#a);}.c{fill:#00e4e3;}</style><clipPath id="a"><path class="a" d="M11,22a2.832,2.832,0,0,1-1.5-.4,2.9,2.9,0,0,1-1.1-1.1,1.009,1.009,0,0,1,.4-1.4.957.957,0,0,1,.5-.141,1.059,1.059,0,0,1,.9.541,1.2,1.2,0,0,1,.093.112.929.929,0,0,0,.307.287.957.957,0,0,0,.5.141,1.06,1.06,0,0,0,.9-.54,1.03,1.03,0,0,1,.908-.5,1.342,1.342,0,0,1,.492.1.613.613,0,0,1,.358.388A1.284,1.284,0,0,1,13.6,20.5,3.023,3.023,0,0,1,11,22Zm10-5H1a1,1,0,0,1,0-2,2,2,0,0,0,2-2V8A7.991,7.991,0,0,1,16.65,2.35,7.943,7.943,0,0,1,19,8v5a2,2,0,0,0,2,2,1,1,0,1,1,0,2ZM11,2A6.007,6.007,0,0,0,5,8v5a4.567,4.567,0,0,1-.5,2h13a4.574,4.574,0,0,1-.5-2V8A6.007,6.007,0,0,0,11,2Z" transform="translate(0)"/></clipPath></defs><g transform="translate(0)"><g transform="translate(0 2)"><path class="a" d="M11,22a2.832,2.832,0,0,1-1.5-.4,2.9,2.9,0,0,1-1.1-1.1,1.009,1.009,0,0,1,.4-1.4.957.957,0,0,1,.5-.141,1.059,1.059,0,0,1,.9.541,1.2,1.2,0,0,1,.093.112.929.929,0,0,0,.307.287.957.957,0,0,0,.5.141,1.06,1.06,0,0,0,.9-.54,1.03,1.03,0,0,1,.908-.5,1.342,1.342,0,0,1,.492.1.613.613,0,0,1,.358.388A1.284,1.284,0,0,1,13.6,20.5,3.023,3.023,0,0,1,11,22Zm10-5H1a1,1,0,0,1,0-2,2,2,0,0,0,2-2V8A7.991,7.991,0,0,1,16.65,2.35,7.943,7.943,0,0,1,19,8v5a2,2,0,0,0,2,2,1,1,0,1,1,0,2ZM11,2A6.007,6.007,0,0,0,5,8v5a4.567,4.567,0,0,1-.5,2h13a4.574,4.574,0,0,1-.5-2V8A6.007,6.007,0,0,0,11,2Z" transform="translate(0)"/></g><circle class="c" cx="5" cy="5" r="5" transform="translate(11)"/></g></svg>