<svg xmlns="http://www.w3.org/2000/svg" width="20.333" height="20.333" viewBox="0 0 20.333 20.333"><defs><style>.a{fill:none;stroke:#858fb0;stroke-linecap:round;stroke-width:2px;}</style></defs><g transform="translate(-75.333 -679.333)"><circle class="a" cx="2.5" cy="2.5" r="2.5" transform="translate(83 687)"/><path class="a" d="M16.667,13a1.375,1.375,0,0,0,.275,1.517l.05.05a1.668,1.668,0,1,1-2.358,2.358l-.05-.05a1.384,1.384,0,0,0-2.35.983V18A1.667,1.667,0,0,1,8.9,18v-.075A1.375,1.375,0,0,0,8,16.667a1.376,1.376,0,0,0-1.517.275l-.05.05a1.668,1.668,0,1,1-2.358-2.358l.05-.05a1.384,1.384,0,0,0-.983-2.35H3A1.667,1.667,0,0,1,3,8.9h.075A1.375,1.375,0,0,0,4.333,8a1.375,1.375,0,0,0-.275-1.517l-.05-.05A1.668,1.668,0,1,1,6.367,4.075l.05.05A1.375,1.375,0,0,0,7.933,4.4H8a1.375,1.375,0,0,0,.833-1.258V3a1.667,1.667,0,1,1,3.333,0v.075a1.384,1.384,0,0,0,2.35.983l.05-.05a1.668,1.668,0,1,1,2.358,2.358l-.05.05A1.375,1.375,0,0,0,16.6,7.933V8a1.376,1.376,0,0,0,1.259.833H18a1.667,1.667,0,1,1,0,3.333h-.075A1.375,1.375,0,0,0,16.667,13Z" transform="translate(75 679)"/></g></svg>